<?xml version="1.0" encoding="UTF-8" standalone="no"?>
<svg
   xmlns:dc="http://purl.org/dc/elements/1.1/"
   xmlns:cc="http://creativecommons.org/ns#"
   xmlns:rdf="http://www.w3.org/1999/02/22-rdf-syntax-ns#"
   xmlns:svg="http://www.w3.org/2000/svg"
   xmlns="http://www.w3.org/2000/svg"
   xmlns:sodipodi="http://sodipodi.sourceforge.net/DTD/sodipodi-0.dtd"
   xmlns:inkscape="http://www.inkscape.org/namespaces/inkscape"
   sodipodi:docname="atelier-logo.svg"
   inkscape:version="1.0 (4035a4fb49, 2020-05-01)"
   id="svg8"
   version="1.1"
   viewBox="0 0 366.61069 50.000045"
   height="50.000046mm"
   width="366.61069mm">
  <defs
     id="defs2" />
  <sodipodi:namedview
     inkscape:pagecheckerboard="true"
     inkscape:showpageshadow="false"
     showborder="true"
     inkscape:window-maximized="0"
     inkscape:window-y="65"
     inkscape:window-x="157"
     inkscape:window-height="967"
     inkscape:window-width="1638"
     lock-margins="true"
     fit-margin-right="0"
     fit-margin-bottom="0"
     fit-margin-left="0"
     fit-margin-top="0"
     inkscape:lockguides="false"
     showgrid="false"
     inkscape:document-rotation="0"
     inkscape:current-layer="layer1"
     inkscape:document-units="mm"
     inkscape:cy="483.55457"
     inkscape:cx="724.3307"
     inkscape:zoom="0.35"
     inkscape:pageshadow="2"
     inkscape:pageopacity="0.0"
     borderopacity="1.0"
     bordercolor="#666666"
     pagecolor="#ffffff"
     id="base" />
  <metadata
     id="metadata5">
    <rdf:RDF>
      <cc:Work
         rdf:about="">
        <dc:format>image/svg+xml</dc:format>
        <dc:type
           rdf:resource="http://purl.org/dc/dcmitype/StillImage" />
        <dc:title></dc:title>
      </cc:Work>
    </rdf:RDF>
  </metadata>
  <g
     transform="translate(-39.931991,-135.31561)"
     style="display:inline"
     id="layer1"
     inkscape:groupmode="layer"
     inkscape:label="レイヤー 1">
    <g
       style="font-style:normal;font-weight:normal;font-size:45.1499px;line-height:1.25;font-family:sans-serif;letter-spacing:0px;word-spacing:0px;fill:#000000;fill-opacity:1;stroke:none;stroke-width:1.12875"
       id="text1404"
       aria-label="カナタ">
      <path
         id="path1444"
         style="font-style:normal;font-variant:normal;font-weight:normal;font-stretch:normal;font-family:HGMinchoB;-inkscape-font-specification:HGMinchoB;fill:#0b0072;fill-opacity:1;stroke-width:1.12875"
         d="m 56.384493,141.03424 q 0.5291,0 2.821869,0.88184 1.763668,0.70546 2.998235,1.5873 0.529101,0.88183 0.352734,1.41093 -0.352734,0.5291 -1.587301,0.5291 -0.529101,3.1746 -1.058201,6.52557 5.46737,-0.35273 10.405641,-0.5291 0.705467,-0.5291 1.0582,-1.0582 0.176367,-0.35273 0.881834,0 1.763668,1.0582 3.350969,2.6455 1.234568,1.5873 -1.587301,1.76367 -1.410934,7.93651 -3.527336,14.81481 -1.587301,4.93827 -3.350969,6.52557 -1.0582,1.0582 -3.350969,1.5873 -2.116401,0.35274 -2.292768,-0.88183 v -1.41093 q 0,-0.5291 -0.352734,-0.70547 -2.998235,-2.29277 -5.114636,-4.58554 -0.352734,-0.88183 0.5291,-0.5291 2.645502,1.41094 4.93827,2.29277 1.587301,0.5291 2.292768,0.5291 1.058201,0 1.763668,-1.41093 1.587301,-2.82187 2.645502,-7.23104 1.234568,-4.93827 1.587301,-9.52381 -5.291003,0.17637 -10.40564,0.70547 -2.821869,11.46384 -7.760139,16.40211 -5.467371,5.46737 -11.287475,7.58377 -0.705467,-0.17636 -0.176367,-0.70547 12.169309,-8.11287 15.167544,-22.92768 -4.409169,0.5291 -7.760138,1.0582 -0.881834,0.88184 -1.940035,0.17637 -2.292768,-1.5873 -3.174602,-2.6455 -0.352734,-0.35274 -0.352734,-0.88184 0.176367,-0.88183 0.5291,-1.41093 0.352734,-0.70547 0.705468,0 0.881834,1.0582 1.587301,1.23457 1.0582,0.35273 2.292768,0.17636 4.585537,-0.35273 8.641973,-0.70546 0.705467,-4.23281 0.881834,-7.05468 0,-1.0582 -0.705467,-1.94003 -0.529101,-0.5291 -1.587302,-0.70547 -0.352733,-0.35273 0,-0.70546 0.881834,-0.70547 1.940035,-0.88184 z" />
      <path
         id="path1446"
         style="font-style:normal;font-variant:normal;font-weight:normal;font-stretch:normal;font-family:HGMinchoB;-inkscape-font-specification:HGMinchoB;fill:#0b0072;fill-opacity:1;stroke-width:1.12875"
         d="m 103.82716,141.03424 q 2.99824,1.0582 5.11464,2.46914 0.88183,1.0582 -0.70547,1.5873 -0.17637,4.58553 -0.17637,8.28924 5.64374,-0.35274 9.34744,-0.70547 l 1.41094,-1.23457 q 3.35097,1.23457 4.7619,2.1164 0.88183,0.5291 0.88183,1.23457 0,1.23457 -1.41093,1.76367 -3.35097,-0.35273 -5.64374,-0.35273 -3.7037,0 -9.5238,0.17636 -0.35274,16.93121 -14.462081,23.98589 -0.881834,0 -0.352733,-0.70547 10.582004,-8.81834 10.934744,-23.10405 -7.231042,0.5291 -11.816578,1.5873 -0.881834,0.17637 -1.587301,0.5291 -0.881834,0.70547 -1.940035,-0.17637 -2.998236,-2.1164 -3.527336,-2.99823 -0.5291,-0.88184 0.176367,-2.1164 0.5291,-0.70547 0.881834,0 0.705467,1.0582 2.116401,1.0582 6.349205,0 15.873008,-0.70547 0.17637,-4.58554 -0.35273,-8.99471 -0.35273,-1.23456 -2.6455,-1.94003 -0.88184,-0.17637 0,-0.88183 0.5291,-0.5291 1.0582,-0.88184 0.70547,-0.35273 1.5873,0 z" />
      <path
         id="path1448"
         style="font-style:normal;font-variant:normal;font-weight:normal;font-stretch:normal;font-family:HGMinchoB;-inkscape-font-specification:HGMinchoB;fill:#0b0072;fill-opacity:1;stroke-width:1.12875"
         d="m 147.38976,140.50514 q 2.29277,0.88184 4.2328,2.82187 0.5291,1.0582 -1.0582,1.23457 -1.0582,2.29277 -1.76367,3.52733 6.87831,-0.5291 11.99294,-1.0582 0.5291,-0.70546 0.88184,-1.0582 2.1164,1.23457 3.88007,3.1746 0.88183,1.41094 -2.29277,1.58731 -3.35097,7.58377 -7.05467,12.6984 3.7037,3.17461 3.7037,5.46737 0,2.11641 -1.94004,2.11641 -0.88183,0 -1.41093,-0.88184 -1.5873,-2.29277 -2.82187,-3.52733 -7.05467,8.9947 -20.10581,13.40387 -0.70547,-0.17636 -0.17637,-0.70546 11.11111,-5.82011 17.98941,-14.99118 -3.1746,-3.35097 -8.9947,-6.52557 -5.11464,5.46737 -10.40564,8.4656 -0.88184,0 -0.35274,-0.70546 8.64198,-7.23104 14.28571,-21.16402 1.0582,-1.94003 -0.70546,-2.6455 -0.88184,-0.35273 0.17636,-1.0582 0.70547,-0.5291 1.94004,-0.17637 z m 0.70546,9.17107 q -3.1746,5.29101 -4.93827,7.23104 5.82011,1.76367 10.22928,4.40917 2.6455,-3.7037 5.8201,-11.11111 -6.3492,0.52911 -9.87654,1.05821 -0.70547,-0.17637 -1.23457,-1.58731 z" />
    </g>
    <g
       style="font-style:normal;font-weight:normal;font-size:45.4822px;line-height:1.25;font-family:sans-serif;letter-spacing:0px;word-spacing:0px;fill:#000000;fill-opacity:1;stroke:none;stroke-width:1.13706"
       id="text1410"
       aria-label="アトリエ">
      <path
         id="path1451"
         style="font-style:normal;font-variant:normal;font-weight:normal;font-stretch:normal;font-family:HGSMinchoB;-inkscape-font-specification:HGSMinchoB;fill:#0b0072;fill-opacity:1;stroke-width:1.13706"
         d="m 264.78483,143.0544 q 2.84264,2.13198 4.44163,3.90863 1.42131,1.95431 -1.95432,1.42132 -10.30456,6.39593 -15.27917,8.17258 -2.48731,16.70049 -16.52284,23.09643 -0.53299,0 -0.17766,-0.533 11.90354,-9.0609 12.25887,-24.69541 -0.53299,-0.53299 -1.42131,-1.06599 -0.533,-0.35533 0.17766,-0.88832 0.71066,-0.533 1.42132,-0.533 2.84264,0.88833 4.61928,2.66498 4.44163,-3.02031 8.88325,-7.63959 -14.92385,1.24365 -19.54314,2.13198 -1.24365,0.17766 -4.44162,1.06598 -1.06599,1.24366 -2.30964,0.17767 -2.84264,-2.13198 -3.73096,-3.73096 -0.35533,-0.35533 0,-1.59899 0.53299,-1.24365 0.88832,-0.35533 0.533,0.88833 1.24366,1.24366 0.88832,0.35533 1.77664,0.35533 5.15229,-0.533 28.24872,-2.30965 z" />
      <path
         id="path1453"
         style="font-style:normal;font-variant:normal;font-weight:normal;font-stretch:normal;font-family:HGSMinchoB;-inkscape-font-specification:HGSMinchoB;fill:#0b0072;fill-opacity:1;stroke-width:1.13706"
         d="m 289.65791,140.38943 q 3.0203,0.88832 5.50761,3.0203 0.88833,1.06599 -1.06599,1.77665 -0.17766,4.08629 -0.35533,10.48222 10.30456,0.88833 14.21319,4.79696 1.77665,1.77664 1.77665,3.19796 0,2.30965 -1.95431,2.30965 -1.24366,0 -3.02031,-1.95432 -5.68527,-5.68527 -11.01522,-6.92893 0.35533,9.23858 0.71066,21.49745 0.17767,1.77665 -0.88832,1.77665 -1.24365,-0.17767 -2.30964,-0.88833 -1.95432,-1.24365 -1.59899,-2.13197 0.17767,-1.24366 0.533,-3.5533 0.17766,-13.85786 -0.17767,-29.67003 0,-1.42132 -2.30964,-2.13198 -0.88833,0 -0.35533,-0.71066 1.24365,-1.06599 2.30964,-0.88832 z" />
      <path
         id="path1455"
         style="font-style:normal;font-variant:normal;font-weight:normal;font-stretch:normal;font-family:HGSMinchoB;-inkscape-font-specification:HGSMinchoB;fill:#0b0072;fill-opacity:1;stroke-width:1.13706"
         d="m 344.20102,140.74476 q 2.84264,0.35533 6.39593,2.48731 0.88833,1.06598 -0.88832,1.95431 v 13.50253 q 0,15.98983 -19.36547,21.49744 -0.71066,-0.35533 -0.17766,-0.88832 15.45684,-6.92893 15.45684,-21.31978 v -7.1066 q 0,-3.37563 -0.17767,-6.39593 -0.17766,-1.77665 -2.4873,-1.95431 -0.533,0 -0.17767,-0.533 0.88833,-1.24365 1.42132,-1.24365 z m -12.08121,3.37563 q 1.59898,0.53299 2.84264,1.42132 0.88832,0.88832 -0.533,1.59898 0.35533,11.19289 0.35533,17.05583 0,0.88832 -0.71066,1.24365 -1.06599,0.533 -2.66497,-0.88832 -1.24365,-1.42132 -1.24365,-2.30965 0,-0.53299 0.35533,-1.42131 0,-9.06091 -0.533,-14.56852 0,-0.71066 -1.42132,-1.06599 -0.88832,0 -0.35533,-0.88833 0.35533,-0.71065 1.24366,-0.71065 1.06599,0 2.66497,0.53299 z" />
      <path
         id="path1457"
         style="font-style:normal;font-variant:normal;font-weight:normal;font-stretch:normal;font-family:HGSMinchoB;-inkscape-font-specification:HGSMinchoB;fill:#0b0072;fill-opacity:1;stroke-width:1.13706"
         d="m 395.54615,148.20668 q 2.84264,1.06599 4.44162,2.13198 0.71066,0.53299 0.35533,1.59898 -0.53299,0.88833 -1.59898,0.88833 -2.30964,-0.17767 -4.79695,-0.17767 -2.84264,-0.17766 -7.46192,0.35533 4.08629,1.59899 1.24365,2.66497 -0.17766,6.92893 -0.53299,12.25888 7.10659,-0.35533 12.6142,-0.71066 1.42132,-1.42132 1.77665,-1.24365 3.0203,1.24365 4.61928,2.66497 1.06599,2.13198 -1.24365,2.66497 -4.08629,-0.35533 -9.41624,-0.53299 -5.50761,0 -10.30456,0.35533 -6.0406,0.53299 -13.1472,1.95431 -1.24365,0.88832 -2.13197,0 -1.95432,-1.42132 -3.37564,-3.19797 -0.35533,-0.35533 -0.35533,-0.71066 0,-1.24365 0.35533,-1.77665 0.35533,-0.71065 0.533,0 0.71066,1.24366 2.13198,1.59899 1.06598,0.17766 2.30964,0.17766 5.86294,-0.53299 12.08121,-1.06599 0.35533,-6.0406 -0.17767,-13.85785 -0.17766,-0.88833 -1.06599,-0.88833 -4.61928,0.533 -7.10659,1.06599 -1.42132,0.71066 -2.30964,-0.17766 -2.13198,-2.13198 -2.84264,-2.84264 -0.35533,-0.71066 0,-1.77665 0.35533,-0.71066 0.71066,-0.17766 0.88832,1.42131 2.48731,1.42131 5.32994,0 19.01014,-1.42131 1.06598,-0.17767 1.95431,-0.35533 0.71066,-0.533 1.24365,-0.88833 z" />
    </g>
    <rect
       y="57.452377"
       x="80.130951"
       height="30.989384"
       width="31.754553"
       id="rect1412"
       style="opacity:0;fill:#0000ff;fill-opacity:1;stroke:#ffffff;stroke-width:0.499999;stroke-miterlimit:4;stroke-dasharray:none;stroke-opacity:1" />
    <rect
       ry="1.1339273"
       y="13.607142"
       x="77.10714"
       height="27.214283"
       width="24.946424"
       id="rect1416"
       style="opacity:0;fill:#9aafff;fill-opacity:1;stroke:none;stroke-width:0;stroke-miterlimit:4;stroke-dasharray:none;stroke-opacity:1" />
    <g
       id="g1442">
      <path
         sodipodi:nodetypes="cccccsccccccsccs"
         id="rect1424"
         style="opacity:1;fill:#c8d2ff;fill-opacity:1;stroke:none;stroke-width:0;stroke-miterlimit:4;stroke-dasharray:none;stroke-opacity:1"
         d="M 410.32617,196.04102 V 385.01758 H 599.30273 V 196.04102 Z m 125.12589,25.19477 c 3.08831,0 6.6909,1.13582 10.80867,3.40753 8.75023,4.54341 15.18448,9.31453 19.30223,14.31229 2.57359,4.54341 5.3e-4,6.58718 -7.72025,6.13285 -27.79485,56.33831 -65.11222,93.36801 -111.95164,111.08732 -3.08833,0.45435 -3.60229,-0.45362 -1.54341,-2.72532 39.63336,-24.53444 70.51648,-62.92782 92.6494,-115.17705 1.02943,-2.27173 1.54342,-4.08762 1.54342,-5.45064 0,-1.81736 -2.31609,-4.08898 -6.94855,-6.81505 -1.02944,0 -1.02944,-0.90969 0,-2.72706 1.54416,-1.36302 2.83069,-2.04487 3.86013,-2.04487 z"
         transform="matrix(0.26458333,0,0,0.26458333,64.925591,83.446426)" />
    </g>
    <g
       inkscape:transform-center-y="0.7413688"
       inkscape:transform-center-x="-1.7892442e-05"
       style="font-style:normal;font-weight:normal;font-size:57.5345px;line-height:1.25;font-family:sans-serif;letter-spacing:0px;word-spacing:0px;fill:#000000;fill-opacity:1;stroke:none;stroke-width:1.43838"
       id="text1428"
       transform="scale(1.1134197,0.89813393)"
       aria-label="ノ" />
  </g>
</svg>
