<?xml version="1.0" encoding="UTF-8" standalone="no"?>
<svg
   xmlns:dc="http://purl.org/dc/elements/1.1/"
   xmlns:cc="http://creativecommons.org/ns#"
   xmlns:rdf="http://www.w3.org/1999/02/22-rdf-syntax-ns#"
   xmlns:svg="http://www.w3.org/2000/svg"
   xmlns="http://www.w3.org/2000/svg"
   width="800"
   height="100"
   viewBox="0 0 211.66667 26.458333"
   version="1.1"
   id="svg8">
  <defs
     id="defs2" />
  <metadata
     id="metadata5">
    <rdf:RDF>
      <cc:Work
         rdf:about="">
        <dc:format>image/svg+xml</dc:format>
        <dc:type
           rdf:resource="http://purl.org/dc/dcmitype/StillImage" />
        <dc:title></dc:title>
      </cc:Work>
    </rdf:RDF>
  </metadata>
  <g
     transform="translate(0,-270.54166)"
     id="layer1">
    <path
       id="rect3725"
       d="m 77.13913,270.65479 h 27.02681 v 26.45833 H 77.13913 Z"
       style="fill:#c3ccff;fill-opacity:1;stroke-width:0.29434961" />
    <g
       id="text3715"
       style="font-style:normal;font-weight:normal;font-size:26.155159px;line-height:1.25;font-family:sans-serif;letter-spacing:0px;word-spacing:0px;fill:#000000;fill-opacity:1;stroke:none;stroke-width:0;stroke-miterlimit:4;stroke-dasharray:none;stroke-opacity:1"
       transform="scale(1.034641,0.9665188)"
       aria-label="カナタノアトリエ">
      <path
         id="path825"
         style="font-style:normal;font-variant:normal;font-weight:normal;font-stretch:normal;font-family:'BIZ UDMincho';-inkscape-font-specification:'BIZ UDMincho';fill:#000080;stroke:#000080;stroke-width:0.50000001;stroke-miterlimit:4;stroke-dasharray:none;stroke-opacity:1"
         d="m 2.2834376,287.82789 q 0.5874694,1.18771 2.0944561,1.18771 0.2171083,0 2.081685,-0.19157 l 0.9067463,-0.0894 0.1149396,-0.0128 q 1.3920471,-0.12771 2.0050586,-0.16602 0.4980719,-2.83518 0.4980719,-3.79301 0,-1.40482 -1.5708421,-1.74964 l 0.6002405,-0.86843 q 1.4048185,0.0639 2.3754195,0.67687 0.996144,0.62578 0.996144,1.41758 0,0.40868 -0.280964,0.88121 -0.191566,0.33205 -0.344819,1.17494 -0.12771,0.68964 -0.446987,2.10723 1.851805,-0.14049 4.955176,-0.33205 0.766265,-0.0639 1.443132,-0.56193 0.35759,-0.26819 0.613011,-0.26819 0.498072,0 1.30265,1.11108 0.574698,0.77904 0.574698,1.18771 0,0.44699 -0.446988,0.67687 -0.370361,0.20433 -0.498071,0.47253 -0.0894,0.17879 -0.166024,0.77903 -0.689638,5.2106 -2.119999,8.68433 -1.404818,3.43542 -3.116142,3.43542 -0.4853,0 -0.613011,-0.21711 -0.0894,-0.14048 -0.102169,-0.45976 -0.01277,-1.16216 -1.059999,-2.27325 -0.523614,-0.56192 -1.583613,-1.35373 l 0.47253,-0.94506 q 2.962889,2.17108 3.588671,2.17108 0.306506,0 0.498072,-0.33204 0.779036,-1.37928 1.506987,-4.35494 0.689638,-2.84795 0.996144,-6.56433 l -0.561927,0.0383 q -3.397106,0.25542 -6.027947,0.4853 -1.4559027,6.02795 -4.1378281,9.4506 -2.2093958,2.8224 -6.21951295,5.24891 l -0.70240906,-0.77904 q 4.01011711,-2.93735 6.14288651,-6.0918 2.1072271,-3.10337 3.0905998,-7.64987 -2.8351784,0.28096 -3.984575,0.75349 -0.8428909,0.34482 -1.3409627,0.34482 -1.724095,0 -2.3371065,-2.55422 z" />
      <path
         id="path827"
         style="font-style:normal;font-variant:normal;font-weight:normal;font-stretch:normal;font-family:'BIZ UDMincho';-inkscape-font-specification:'BIZ UDMincho';fill:#000080;stroke:#000080;stroke-width:0.50000001;stroke-miterlimit:4;stroke-dasharray:none;stroke-opacity:1"
         d="m 26.420767,289.07945 q 0.421445,0.74072 1.034457,0.99615 0.536385,0.22988 1.455902,0.22988 1.570842,0 5.746984,-0.34482 0.229879,-0.0256 1.174938,-0.0766 0.306506,-0.0255 0.58747,-0.0511 0.05108,-1.6347 0.05108,-3.11615 0,-2.15831 -0.306506,-2.73301 -0.35759,-0.68963 -1.583613,-0.84289 l 0.421445,-0.9706 q 0.153253,0 0.22988,0 1.404818,0 2.337106,0.3959 1.072771,0.44699 1.072771,1.31542 0,0.21711 -0.07663,0.67687 -0.153253,0.85566 -0.166024,3.93349 0,0.39591 -0.02554,1.21325 l 0.293735,-0.0128 q 2.745781,-0.15325 3.499274,-0.19156 1.162168,-0.0639 1.813492,-0.47253 0.498072,-0.31928 0.970602,-0.31928 0.676867,0 1.711324,0.6641 0.664096,0.43421 0.664096,0.91951 0,0.31928 -0.255422,0.53639 -0.35759,0.29373 -0.919517,0.29373 -0.05108,0 -0.893975,-0.0894 -1.596385,-0.15326 -3.435419,-0.15326 -1.277108,0 -3.499274,0.0766 -0.395904,4.24 -1.481445,6.81975 -1.021686,2.40097 -2.694696,4.08675 -1.749638,1.7624 -4.482647,3.11614 l -0.727952,-0.84289 q 3.486504,-2.12 5.044575,-4.57205 2.094456,-3.29493 2.362648,-8.50553 -3.754695,0.31928 -5.964091,0.67687 -0.868433,0.14048 -1.200481,0.25542 -0.676867,0.25542 -1.085541,0.25542 -0.842891,0 -1.673011,-0.89398 -0.549156,-0.60024 -0.804578,-1.57084 z" />
      <path
         id="path829"
         style="font-style:normal;font-variant:normal;font-weight:normal;font-stretch:normal;font-family:'BIZ UDMincho';-inkscape-font-specification:'BIZ UDMincho';fill:#000080;stroke:#000080;stroke-width:0.50000001;stroke-miterlimit:4;stroke-dasharray:none;stroke-opacity:1"
         d="m 53.291106,294.69872 q 3.844093,-2.79686 6.130115,-6.71758 1.455903,-2.50313 1.455903,-3.56313 0,-0.77904 -1.123855,-1.04723 l 0.625783,-0.85566 q 1.136626,0.10217 1.966745,0.44699 1.047228,0.43421 1.047228,1.12385 0,0.37036 -0.319276,0.80458 -0.319277,0.44699 -0.574699,1.02169 -0.178795,0.37036 -0.24265,0.52361 3.588672,-0.26819 4.789152,-0.42145 0.676867,-0.0894 1.353734,-0.58747 0.434217,-0.31927 0.676867,-0.31927 0.408675,0 0.868433,0.52361 0.996144,1.1494 0.996144,1.74964 0,0.33205 -0.485301,0.72795 -0.434216,0.37036 -0.881204,1.40482 -1.455902,3.47373 -3.052287,5.97686 2.068914,1.77518 2.068914,2.97566 0,0.4853 -0.268192,0.83012 -0.280964,0.3959 -0.804578,0.3959 -0.459758,0 -0.945059,-0.80457 -0.395904,-0.67687 -1.277108,-1.69856 -3.703611,4.62313 -10.727702,7.01132 l -0.625782,-0.91951 q 3.844093,-1.48145 6.589874,-3.63976 1.915661,-1.51976 3.563129,-3.71638 -2.452046,-2.27325 -5.568188,-4.25277 -1.979516,2.08168 -4.508189,3.79301 z m 14.993241,-7.58601 -6.781441,0.62578 q -0.95783,1.62193 -2.247708,3.11614 3.69084,1.96675 5.887464,3.56313 2.005059,-3.15445 3.141685,-7.30505 z" />
      <path
         id="path831"
         style="fill:#ffffff;stroke:#ffffff;stroke-width:0.50000001;stroke-miterlimit:4;stroke-dasharray:none;stroke-opacity:1"
         d="m 79.62506,302.60402 q 4.712526,-2.15831 7.483849,-4.96795 2.886263,-2.95012 4.572045,-7.03686 1.149396,-2.80964 1.149396,-4.20168 0,-1.07277 -1.251565,-1.50699 l 0.676867,-0.85566 q 1.417589,0.28096 2.273251,0.8812 0.919517,0.65133 0.919517,1.53253 0,0.37036 -0.280963,0.93229 -0.47253,0.89397 -0.970602,2.29879 -1.813492,5.08289 -5.414935,8.53108 -3.320479,3.16723 -8.479993,5.27445 z" />
      <path
         id="path833"
         style="font-style:normal;font-variant:normal;font-weight:normal;font-stretch:normal;font-family:'BIZ UDMincho';-inkscape-font-specification:'BIZ UDMincho';fill:#000080;stroke:#000080;stroke-width:0.50000001;stroke-miterlimit:4;stroke-dasharray:none;stroke-opacity:1"
         d="m 106.02287,284.02211 q 0.49807,1.14939 2.14554,1.14939 3.72915,0 12.86047,-0.94506 1.04723,-0.10216 1.73687,-0.58747 0.3065,-0.2171 0.53638,-0.2171 0.63856,0 1.49422,1.13662 0.49807,0.63856 0.49807,1.07277 0,0.4853 -0.65132,0.63856 -0.52362,0.11494 -0.79181,0.3959 -0.0766,0.0766 -0.3959,0.62578 -2.27326,3.86964 -6.09181,6.41108 l -0.75349,-0.77903 q 4.01012,-2.79687 5.59373,-7.58602 -3.86964,0.26819 -10.17855,1.06 -1.91566,0.24265 -3.23108,0.67686 -0.58747,0.19157 -1.13662,0.19157 -0.99615,0 -1.68578,-0.89398 -0.53639,-0.7024 -0.79181,-1.72409 z m 1.64747,19.53974 q 3.12891,-1.6347 4.48264,-3.78024 0.65133,-1.02168 1.11109,-2.52867 0.77903,-2.52867 0.77903,-5.3 0,-1.11108 -0.34482,-1.55807 -0.35759,-0.45976 -1.2771,-0.56192 l 0.47253,-0.93229 q 1.8518,0.0128 2.83518,0.56192 0.7024,0.38314 0.7024,1.03446 0,0.30651 -0.19156,0.72795 -0.19157,0.42145 -0.20434,0.7535 -0.0766,3.85686 -1.49421,6.85806 -1.71133,3.63976 -6.21952,5.56819 z" />
      <path
         id="path835"
         style="font-style:normal;font-variant:normal;font-weight:normal;font-stretch:normal;font-family:'BIZ UDMincho';-inkscape-font-specification:'BIZ UDMincho';fill:#000080;stroke:#000080;stroke-width:0.50000001;stroke-miterlimit:4;stroke-dasharray:none;stroke-opacity:1"
         d="m 136.6479,282.46404 q 0.25542,-0.0128 0.38313,-0.0128 1.4559,0 2.36265,0.60025 0.72795,0.4853 0.72795,1.12385 0,0.28096 -0.15325,0.74072 -0.31928,0.93229 -0.31928,2.49036 v 2.92458 q 3.62698,0.95783 6.62819,2.57975 2.83517,1.53253 2.83517,2.97566 0,0.52362 -0.29373,0.88121 -0.29373,0.34482 -0.63855,0.34482 -0.5747,0 -1.1494,-0.68964 -2.4265,-2.95012 -7.38168,-4.91686 0,7.48385 0.28096,10.80432 0.0639,0.5747 0.0639,0.85567 0,0.76626 -0.31928,1.21325 -0.25542,0.37036 -0.68964,0.37036 -0.54915,0 -0.93229,-0.5747 -0.37036,-0.53638 -0.37036,-1.12385 0,-0.15326 0.0511,-0.53639 0.0255,-0.12771 0.0511,-0.37036 0.19157,-1.81349 0.19157,-2.65638 v -13.55011 q 0,-1.25157 -0.24265,-1.71133 -0.37036,-0.71518 -1.60916,-0.85566 z" />
      <path
         id="path837"
         style="font-style:normal;font-variant:normal;font-weight:normal;font-stretch:normal;font-family:'BIZ UDMincho';-inkscape-font-specification:'BIZ UDMincho';fill:#000080;stroke:#000080;stroke-width:0.50000001;stroke-miterlimit:4;stroke-dasharray:none;stroke-opacity:1"
         d="m 160.63198,284.13705 q 1.20048,0.0639 2.15831,0.4853 0.98337,0.44698 0.98337,1.11108 0,0.1788 -0.12771,0.47253 -0.10216,0.24265 -0.14048,0.35759 -0.11494,0.3959 -0.11494,2.2094 0,4.48264 0.0639,5.17228 0.0128,0.1788 0.0128,0.43422 0,1.03445 -0.14048,1.48144 -0.10217,0.30651 -0.35759,0.54916 -0.22988,0.22988 -0.43422,0.22988 -0.40867,0 -0.79181,-0.54916 -0.0894,-0.14048 -0.19156,-0.3959 -0.29374,-0.84289 -0.29374,-1.34096 0,-0.35759 0.15326,-1.13663 0.2171,-1.07277 0.2171,-3.40988 0,-2.95011 -0.15325,-3.63975 -0.19156,-0.89398 -1.26433,-1.20048 z m 8.63325,-0.97061 q 0.53638,-0.19156 1.12385,-0.19156 1.30265,0 2.17108,0.81735 0.49808,0.45976 0.49808,0.95783 0,0.28096 -0.10217,0.58747 -0.21711,0.67686 -0.21711,1.22602 v 4.59759 q 0,3.10337 -0.62578,5.15951 -1.82627,5.97686 -8.83759,8.41614 l -0.62578,-0.83012 q 6.32168,-2.73301 7.68819,-7.85421 0.52361,-1.95398 0.52361,-4.89132 v -4.49542 q 0,-1.36651 -0.31928,-1.90289 -0.38313,-0.63855 -1.43036,-0.63855 -0.0766,0 -0.24265,0 z" />
      <path
         id="path839"
         style="font-style:normal;font-variant:normal;font-weight:normal;font-stretch:normal;font-family:'BIZ UDMincho';-inkscape-font-specification:'BIZ UDMincho';fill:#000080;stroke:#000080;stroke-width:0.50000001;stroke-miterlimit:4;stroke-dasharray:none;stroke-opacity:1"
         d="m 185.36956,286.06548 q 0.4853,1.13662 2.36265,1.13662 0.38313,0 3.79301,-0.16602 l 3.07782,-0.15325 q 3.29494,-0.16603 4.31663,-0.65133 0.38313,-0.19156 0.72795,-0.19156 0.58747,0 1.40482,0.61301 0.71518,0.53638 0.71518,1.04723 0,0.28096 -0.22988,0.4853 -0.24265,0.21711 -0.65133,0.21711 -0.38313,0 -0.81735,-0.0383 -1.95397,-0.20434 -3.71638,-0.20434 -0.68964,0 -1.72409,0.0383 -0.24265,0.0128 -0.42145,0.0128 l -0.15325,10.05083 q 3.63975,-0.11494 4.39325,-0.11494 h 0.14048 q 1.67301,0 2.6947,-0.44698 0.65132,-0.28097 0.93228,-0.28097 0.63856,0 1.6347,0.84289 0.63856,0.52362 0.63856,0.99615 0,0.29373 -0.31928,0.4853 -0.30651,0.19156 -0.79181,0.19156 -0.35759,0 -1.06,-0.14048 -1.50698,-0.28096 -4.09951,-0.28096 -2.86072,0 -8.60771,0.37036 -2.95011,0.19157 -4.55927,0.60024 -0.37036,0.10217 -0.61301,0.10217 -0.5747,0 -1.1494,-0.4853 -0.81735,-0.70241 -1.23879,-2.00506 l 0.84289,-0.60024 q 0.62578,1.12385 2.68193,1.12385 0.33204,0 1.07277,-0.0383 0.72795,-0.0383 4.03565,-0.19157 l 1.09832,-0.0511 0.49807,-0.0255 0.15325,-10.02529 q -3.56313,0.3065 -4.53373,0.61301 -0.60024,0.17879 -0.91952,0.17879 -0.7918,0 -1.53253,-0.75349 -0.57469,-0.58747 -0.83012,-1.51976 z" />
    </g>
    <flowRoot
       transform="scale(0.26458333)"
       style="font-style:normal;font-weight:normal;font-size:40px;line-height:1.25;font-family:sans-serif;letter-spacing:0px;word-spacing:0px;fill:#000000;fill-opacity:1;stroke:none"
       id="flowRoot3717"
       xml:space="preserve"><flowRegion
         id="flowRegion3719"><rect
           y="533.94824"
           x="60"
           height="45.714287"
           width="54.285713"
           id="rect3721" /></flowRegion><flowPara
         id="flowPara3723" /></flowRoot>  </g>
</svg>
